#!OML:ASF \\Waltz\H\Terrain\Patient Classification 1\Animal1\Tuesday\Animal1.ASF
:FULLY-SPECIFIED
:DEGREES
3833
root 13.2859 14.3515 -3.22094 26.2094 -25.3508 3.09885
lowerback 36.704 -6.6994 13.8123
upperback 17.4613 -5.10066 -10.9293
thorax -1.10169 -1.29862 -17.6451
lowerneck -6.46121 -3.33004 1.32411
upperneck -17.0789 -2.0101 22.7089
head -3.65449 -2.34218 6.99663
rclavicle -3.91606e-014 2.61402e-014
rhumerus -65.4581 34.2192 -100.359
rradius 43.0683
rwrist -6.98466
rhand -36.1349 395.89
rfingers 7.12502
rthumb -9.23994 366.113
lclavicle -3.91606e-014 2.61402e-014
lhumerus -89.3705 -39.6477 93.5293
lradius 61.9531
lwrist -26.1192
lhand -0.0541559 -331.141
lfingers 7.12502
lthumb 25.5385 1137.17
rfemur -86.5043 7.14895 19.2781
rtibia 64.2884
rfoot -5.33303 -11.6092
rtoes -0.74285
lfemur -67.0788 -7.14759 -32.9961
ltibia 67.8044
lfoot -23.1389 6.59016
ltoes 10.5401
3834
root 13.2831 14.3414 -3.27577 26.5975 -25.6488 2.9246
lowerback 36.4457 -6.26341 13.6061
upperback 17.3229 -4.65436 -10.7337
thorax -0.977454 -1.09965 -17.4972
lowerneck -6.28689 -3.40948 1.68622
upperneck -17.2477 -2.10317 22.5346
head -3.74285 -2.42842 6.88561
rclavicle -9.64106e-015 -1.3008e-014
rhumerus -64.8176 33.0018 -99.7448
rradius 45.0396
rwrist -9.68584
rhand -36.3552 392.682
rfingers 7.12502
rthumb -9.45257 362.914
lclavicle -9.64106e-015 -1.3008e-014
lhumerus -85.3793 -39.6355 89.8937
lradius 59.6283
lwrist -28.7897
lhand -2.42565 -326.851
lfingers 7.12502
lthumb 23.2651 1141.76
rfemur -87.0738 7.13593 19.0733
rtibia 66.0076
rfoot -5.31646 -12.43
rtoes 3.24592
lfemur -67.7661 -6.92281 -32.8513
ltibia 68.0227
lfoot -22.372 7.6229
ltoes 7.19719
3835
root 13.2822 14.3443 -3.32862 26.5984 -25.9007 2.82768
lowerback 36.4912 -6.09688 13.4683
upperback 17.2795 -4.48832 -10.6585
thorax -0.966541 -1.03156 -17.395
lowerneck -6.29399 -3.4814 1.72563
upperneck -17.0709 -2.23686 22.5691
head -3.67297 -2.48318 6.88124
rclavicle -4.78077e-014 -2.65253e-014
rhumerus -64.436 32.1358 -99.7551
rradius 47.1808
rwrist -12.5648
rhand -36.5362 393.09
rfingers 7.12502
rthumb -9.62722 363.33
lclavicle -4.78077e-014 -2.65253e-014
lhumerus -81.599 -38.8499 86.2163
lradius 57.9858
lwrist -31.1953
lhand -7.08888 -320.174
lfingers 7.12502
lthumb 18.7853 1148.94
rfemur -87.1444 7.04639 18.7926
rtibia 67.6977
rfoot -6.05352 -13.33
rtoes 7.71573
lfemur -68.0637 -6.78626 -32.6313
ltibia 68.1461
lfoot -22.6614 7.06699
ltoes 9.60945
3836
root 13.2804 14.3585 -3.37976 26.4752 -26.1272 2.746
lowerback 36.6319 -6.06415 13.3285
upperback 17.2542 -4.47905 -10.6465
thorax -1.0314 -1.04381 -17.2956
lowerneck -6.43764 -3.51018 1.53539
upperneck -16.6226 -2.33759 22.8756
head -3.48463 -2.48863 6.99337
rclavicle -2.88238e-015 -3.20416e-014
rhumerus -64.0254 31.4759 -100.185
rradius 48.8007
rwrist -15.2572
rhand -34.4018 399.887
rfingers 7.12502
rthumb -7.56743 370.042
lclavicle -2.88238e-015 -3.20416e-014
lhumerus -77.2333 -37.0505 81.7603
lradius 56.3665
lwrist -34.106
lhand -11.3577 -312.86
lfingers 7.12502
lthumb 14.6759 1156.6
rfemur -86.9688 6.88033 18.5229
rtibia 69.3611
rfoot -6.55974 -14.3174
rtoes 8.4756
lfemur -68.1211 -6.61162 -32.4435
ltibia 68.1422
lfoot -22.9656 6.62751
ltoes 11.064
3837
root 13.276 14.3739 -3.42636 26.3446 -26.5009 2.80683
lowerback 36.8023 -5.91416 13.0004
upperback 17.1465 -4.38662 -10.682
thorax -1.17227 -1.03426 -17.178
lowerneck -6.44398 -3.49641 1.59593
upperneck -16.233 -2.37351 23.0644
head -3.35786 -2.48377 7.02908
rclavicle -6.55989e-015 -3.27249e-014
rhumerus -63.7406 30.5039 -100.905
rradius 50.0928
rwrist -17.6223
rhand -27.8414 415.876
rfingers 7.12502
rthumb -1.23275 385.9
lclavicle -6.55989e-015 -3.27249e-014
lhumerus -72.9087 -34.7241 77.2078
lradius 54.7752
lwrist -37.012
lhand -12.562 -307.121
lfingers 7.12502
lthumb 13.5154 1162.42
rfemur -86.8424 6.72155 18.0482
rtibia 70.9877
rfoot -6.85991 -14.9713
rtoes 8.31351
lfemur -68.0756 -6.34901 -32.4956
ltibia 67.9661
lfoot -22.8308 6.84652
ltoes 9.8913
3838
root 13.2706 14.3806 -3.47124 26.2593 -26.9503 2.84094
lowerback 37.0319 -5.61815 12.6935
upperback 16.9454 -4.10391 -10.6837
thorax -1.36626 -0.938735 -17.1078
lowerneck -6.25216 -3.59513 1.74862
upperneck -15.9215 -2.54051 23.2079
head -3.27902 -2.564 7.03927
rclavicle 5.02925e-014 -1.04337e-013
rhumerus -64.125 29.2617 -101.999
rradius 51.7338
rwrist -19.2411
rhand -34.8402 402.233
rfingers 7.12502
rthumb -7.99059 372.404
lclavicle 5.02925e-014 -1.04337e-013
lhumerus -69.5747 -32.5152 73.5992
lradius 53.915
lwrist -38.2775
lhand -12.6263 -303.078
lfingers 7.12502
lthumb 13.4534 1166.47
rfemur -86.8012 6.70257 17.4498
rtibia 72.578
rfoot -6.50695 -15.2689
rtoes 6.31018
lfemur -68.095 -6.0862 -32.5108
ltibia 67.7301
lfoot -22.498 7.0004
ltoes 9.6126
3839
root 13.2696 14.391 -3.52238 26.2938 -27.226 2.6342
lowerback 37.2227 -5.60631 12.6096
upperback 16.8767 -4.10107 -10.6689
thorax -1.49815 -0.959182 -17.031
lowerneck -6.55369 -3.66081 1.24517
upperneck -15.4459 -2.69402 23.6837
head -3.03228 -2.57159 7.25737
rclavicle 2.48481e-015 -4.79816e-014
rhumerus -64.3594 28.7959 -103.354
rradius 53.0045
rwrist -19.7906
rhand -37.0148 394.205
rfingers 7.12502
rthumb -10.0889 364.467
lclavicle 2.48481e-015 -4.79816e-014
lhumerus -66.9994 -29.7058 70.8486
lradius 54.0153
lwrist -36.6923
lhand -13.5138 -298.363
lfingers 7.12502
lthumb 12.5979 988.763
rfemur -86.6953 6.63045 17.1316
rtibia 74.0752
rfoot -6.47425 -15.2654
rtoes 7.77622
lfemur -68.2194 -5.9435 -32.2049
ltibia 67.5414
lfoot -22.0631 7.41397
ltoes 8.73448
3840
root 13.2737 14.4175 -3.57442 26.2875 -27.3176 2.36453
lowerback 37.4199 -5.80143 12.7525
upperback 16.8728 -4.27371 -10.6461
thorax -1.62233 -1.04972 -16.9994
lowerneck -6.76082 -3.583 0.854231
upperneck -15.2853 -2.60611 23.8865
head -2.93831 -2.48855 7.38429
rclavicle 0 9.23603e-014
rhumerus -64.1528 28.2278 -104.684
rradius 53.5858
rwrist -19.1779
rhand -36.121 398.015
rfingers 7.12502
rthumb -9.22652 368.237
lclavicle 0 9.23603e-014
lhumerus -65.0539 -26.804 69.0455
lradius 54.551
lwrist -32.5174
lhand -15.6422 -293.416
lfingers 7.12502
lthumb 10.5453 983.701
rfemur -86.3857 6.32279 16.9846
rtibia 75.4507
rfoot -6.95331 -15.014
rtoes 12.354
lfemur -68.1982 -5.8857 -31.793
ltibia 67.3452
lfoot -21.9081 7.50041
ltoes 8.61823
3841
root 13.278 14.4491 -3.61909 26.2426 -27.3627 2.1604
lowerback 37.4981 -5.97394 12.9923
upperback 16.8314 -4.39777 -10.6211
thorax -1.73618 -1.11312 -17.0455
lowerneck -6.50533 -3.4982 0.678647
upperneck -15.4386 -2.43104 23.8836
head -3.04467 -2.42067 7.42797
rclavicle -7.95139e-015 -8.43841e-014
rhumerus -64.2335 27.5148 -106.39
rradius 54.3679
rwrist -18.3386
rhand -36.0233 399.271
rfingers 7.12502
rthumb -9.13228 369.489
lclavicle -7.95139e-015 -8.43841e-014
lhumerus -63.6034 -24.1279 67.873
lradius 55.2866
lwrist -27.4107
lhand -18.6208 -291.009
lfingers 7.12502
lthumb 7.67116 981.168
rfemur -86.0105 5.90992 16.8019
rtibia 76.7861
rfoot -7.11264 -14.7627
rtoes 14.9867
lfemur -68.0859 -5.79324 -31.5086
ltibia 67.1338
lfoot -21.8639 7.13584
ltoes 10.3975
3842
root 13.2811 14.4732 -3.66119 26.2289 -27.4847 2.14758
lowerback 37.4939 -5.80453 12.8737
upperback 16.6783 -4.21196 -10.4378
thorax -1.81164 -1.05109 -16.8331
lowerneck -6.1825 -3.54117 0.638943
upperneck -15.431 -2.47155 23.7999
head -3.09507 -2.45076 7.41119
rclavicle -2.56432e-014 -7.00964e-014
rhumerus -65.1533 27.0191 -108.654
rradius 55.3531
rwrist -18.276
rhand -36.5704 399.13
rfingers 7.12502
rthumb -9.66014 369.371
lclavicle -2.56432e-014 -7.00964e-014
lhumerus -62.5279 -22.0403 67.3657
lradius 56.2979
lwrist -22.9924
lhand -21.7843 -292.07
lfingers 7.12502
lthumb 4.61703 982.14
rfemur -85.7065 5.47986 16.3884
rtibia 78.0964
rfoot -7.08788 -14.599
rtoes 16.3781
lfemur -68.1172 -5.75083 -31.4398
ltibia 66.9243
lfoot -21.5823 7.35213
ltoes 9.63481
3843
root 13.2846 14.4982 -3.70492 26.1929 -27.719 2.24426
lowerback 37.4492 -5.68652 12.566
upperback 16.6694 -4.16474 -10.3331
thorax -1.76954 -1.04722 -16.555
lowerneck -6.44071 -3.48006 0.629391
upperneck -15.2668 -2.46286 23.5795
head -3.00789 -2.40517 7.32675
rclavicle -4.79071e-014 -6.98231e-015
rhumerus -66.0473 27.4541 -111.455
rradius 56.1708
rwrist -19.1943
rhand -37.1999 398.672
rfingers 7.12502
rthumb -10.2675 368.943
lclavicle -4.79071e-014 -6.98231e-015
lhumerus -61.8423 -20.5212 67.7287
lradius 57.4397
lwrist -19.4942
lhand -23.3957 -295.199
lfingers 7.12502
lthumb 3.06093 985.242
rfemur -85.4357 5.1229 15.6339
rtibia 79.3161
rfoot -7.5972 -14.1424
rtoes 20.7728
lfemur -68.1982 -5.73482 -31.443
ltibia 66.7126
lfoot -21.2177 7.7924
ltoes 8.15022
